<svg xmlns="http://www.w3.org/2000/svg" version="1.1" xmlns:xlink="http://www.w3.org/1999/xlink" xmlns:svgjs="http://svgjs.dev/svgjs" width="100%" height="100%" viewBox="0 0 1000 600"><rect width="1000" height="600" x="0" y="0" fill="#0b099e"/><g><rect width="333.3333333333333" height="333.3333333333333" y="238.34425754797957" fill="#ffec39" transform="matrix(0.5783769485156027,0,0,0.5783769485156027,0,65.75101546839159)" x="216.1220245361328"/><path d="M297.70653806691706 424.97918609396595L321.5116175687443 427.3877000200332Q320.69944426809377 431.4205605474016 320.69944426809377 437.77791707318363Q320.69944426809377 444.1352735989658 323.4160239288905 449.5684329205593Q326.1326035896873 455.02959821803734 330.5855537553232 455.02959821803734L330.5855537553232 455.02959821803734Q336.6348445463758 455.02959821803734 339.35142420717256 445.6475962967289Q342.0680038679693 436.2655943754205 342.0680038679693 425.17522792515746L342.0680038679693 425.17522792515746Q342.0680038679693 378.79733186042097 338.42722700298395 332.223393964493L338.42722700298395 332.223393964493L366.88129850163875 334.6319078905602Q369.681896090089 370.92765263687573 369.681896090089 425.17522792515746L369.681896090089 425.17522792515746Q369.681896090089 443.3231002983152 361.84022284242826 459.8466260701718L361.84022284242826 459.8466260701718Q357.80736231505983 468.52847859436764 350.4417906574356 474.0736618194992Q343.07621899981143 479.6188450446307 333.61019915084955 479.6188450446307L333.61019915084955 479.6188450446307Q316.6665837407254 479.6188450446307 306.3883905911129 467.8283291972551Q296.0821914656159 456.03781334987946 296.0821914656159 438.4780664702962L296.0821914656159 438.4780664702962Q296.0821914656159 432.42877567924364 297.70653806691706 424.97918609396595L297.70653806691706 424.97918609396595ZM464.2580766520546 393.7245170068609L439.2487401871937 385.46275412093263Q441.88130192033697 375.57664463370315 441.88130192033697 368.91122237319155Q441.88130192033697 362.27380608856436 438.2405250553516 357.9328798264665Q434.6277541662507 353.59195356436857 428.8865291099277 353.59195356436857Q423.11729807772014 353.59195356436857 419.3084853574278 359.2491606930381Q415.47166666125094 364.8783618458231 415.47166666125094 372.13190959990936L415.47166666125094 372.13190959990936Q415.47166666125094 386.2469214456987 431.6031087707245 396.3290727641197L431.6031087707245 396.3290727641197Q447.734550880198 406.83131372080817 453.5877998400591 411.4522997417511Q459.41304282403564 416.1012917385786 461.84956272598737 419.93811043475546L461.84956272598737 419.93811043475546Q467.8988535170399 429.8242199219849 467.8988535170399 440.2984549027889L467.8988535170399 440.2984549027889Q467.8988535170399 458.44632727594666 455.6882480313968 469.2286279914802Q443.50564852163814 480.0109287070137 428.1583737369306 480.0109287070137L428.1583737369306 480.0109287070137Q410.0105013637729 480.0109287070137 397.71587795047617 464.6916598981908L397.71587795047617 464.6916598981908Q388.8379835950888 453.6012934479277 381.3883940098111 437.07776767607106L381.3883940098111 437.07776767607106L400.936565177194 427.58374185122466Q405.58555717402146 439.6823234333298 412.5310391933781 448.0561102227962Q419.5045271886193 456.4298970122625 427.37420641216454 456.4298970122625L427.37420641216454 456.4298970122625Q432.41528207137503 456.4298970122625 436.4481425987434 453.20920978554466Q440.48100312611183 449.98852255882684 440.48100312611183 443.4351242018532Q440.48100312611183 436.8817258448796 435.4399274669013 431.22451871621Q430.39885180769085 425.5673115875405 421.9130411146865 419.7420686035639Q413.4552363975667 413.88881964370285 408.8062444007393 410.164024851064Q404.1852583797963 406.4112240825406 398.5280512511268 400.58598109856405L398.5280512511268 400.58598109856405Q387.82976846324675 389.27156684122497 387.82976846324675 371.6278020339883Q387.82976846324675 353.9840372267516 400.15239785242795 341.99747954818446Q412.44702126572463 330.0109218696173 429.3906366758488 330.0109218696173Q446.3062461100884 330.0109218696173 457.9007201262725 343.11771858356457Q469.4951941424566 356.2245152975118 469.4951941424566 370.03146140857166Q469.4951941424566 383.83840751963146 464.2580766520546 393.7245170068609L464.2580766520546 393.7245170068609Z " fill="#00000" transform="matrix(0.5783769485156027,0,0,0.5783769485156027,0,65.75101546839159)"/><path d="M634.3725302491434 426.35171870092563L657.5838900328037 428.7001621613901Q656.7919730519493 432.6324395835631 656.7919730519493 438.8312380199053Q656.7919730519493 445.0300364562475 659.4407988154965 450.3276879833417Q662.0896245790436 455.65264699253436 666.431514232693 455.65264699253436L666.431514232693 455.65264699253436Q672.3299303659525 455.65264699253436 674.9787561294995 446.5046404895624Q677.6275818930467 437.3566339865904 677.6275818930467 426.5428710756146L677.6275818930467 426.5428710756146Q677.6275818930467 381.32168072062484 674.0776092202516 335.9093379909461L674.0776092202516 335.9093379909461L701.8220110322502 338.25778145141055Q704.5527592420925 373.6482782509678 704.5527592420925 426.5428710756146L704.5527592420925 426.5428710756146Q704.5527592420925 444.2381194753932 696.9066642545339 460.34953391346323L696.9066642545339 460.34953391346323Q692.9743868323608 468.81485336397463 685.7925190404753 474.22173481946254Q678.6106512485899 479.62861627495045 669.3807222993228 479.62861627495045L669.3807222993228 479.62861627495045Q652.8596956297763 479.62861627495045 642.8378496996547 468.132166311514Q632.7886962874348 456.6357163480776 632.7886962874348 439.5139250723659L632.7886962874348 439.5139250723659Q632.7886962874348 433.61550893910635 634.3725302491434 426.35171870092563L634.3725302491434 426.35171870092563ZM764.5199899302312 379.5466943842273L787.3490449645134 381.5128330953138L786.939432733037 412.58874772332007Q786.939432733037 456.41725649129023 788.5232666947456 477.0617129576986L788.5232666947456 477.0617129576986L769.0530319585695 475.09557424661205Q768.4522673524042 466.8487146528881 766.4861286413176 458.38339520237673L766.4861286413176 458.38339520237673Q755.6723657303419 474.3309647478562 744.7766803730707 474.3309647478562Q733.8536875337012 474.3309647478562 727.3818142763748 466.8487146528881Q720.8826335369499 459.36646455792 720.8826335369499 446.2042581864797L720.8826335369499 446.2042581864797Q720.8826335369499 420.6444549423551 724.623758584434 385.25395814279784L724.623758584434 385.25395814279784L747.4255061366179 387.41124922857335Q743.8755334638228 421.026759691733 743.8755334638228 443.25505011984995L743.8755334638228 443.25505011984995Q743.8755334638228 453.27689604997147 750.1835618285587 453.27689604997147L750.1835618285587 453.27689604997147Q753.1327698951884 453.27689604997147 757.3654296204442 445.22118883093646Q761.5707818636014 437.16548161190144 764.1376851808532 425.75095409476035L764.1376851808532 425.75095409476035Q763.9465328061642 421.4363719232094 763.9465328061642 415.5379557899498Q763.9465328061642 409.6395396566903 764.5199899302312 379.5466943842273L764.5199899302312 379.5466943842273ZM811.1338618722406 330.0109218576866L834.1267617991133 331.78590819408413Q831.1775537324836 381.5128330953138 831.1775537324836 421.4363719232094Q831.1775537324836 461.3326032690065 832.1606230880268 477.47132518917493L832.1606230880268 477.47132518917493L808.976570786465 475.3140341033995Q808.1846538056108 454.86073001168006 808.1846538056108 417.2037121979537Q808.1846538056108 379.5466943842273 811.1338618722406 330.0109218576866L811.1338618722406 330.0109218576866ZM855.563135246376 474.3309647478562L855.563135246376 379.9563066157036L877.9825780491819 382.11359770147914L877.9825780491819 476.4882558336317L855.563135246376 474.3309647478562ZM855.180830496998 367.1764049936413L857.1469692080846 345.3304193149023L879.1567997794141 347.89732263215416L877.1906610683276 369.9071532034837L855.180830496998 367.1764049936413ZM897.4528127853581 415.7291081646388Q900.4020208519879 400.3823032253246 908.6488804457118 389.6777702427425Q916.8957400394357 378.9732372601604 930.2764062676634 378.9732372601604Q943.6570724958912 378.9732372601604 950.0470233069223 390.06007499212046Q956.4369741179534 401.1742202061789 956.4369741179534 421.62752429789833Q956.4369741179534 442.08082838961775 954.0612231753905 478.04478231324185L954.0612231753905 478.04478231324185L937.5401965058442 476.67940820832064L935.983670026234 470.3986873256832Q926.7264335948684 475.6963388527774 917.1141998962231 475.6963388527774Q907.4746587154797 475.6963388527774 901.1666303507437 469.30638804174623Q894.8859094681062 462.9164372307151 894.8859094681062 450.92845258950706Q894.8859094681062 438.940467948299 906.7919716630189 430.2839961230987Q918.6707263758333 421.62752429789833 934.2086836898364 421.24521954852037L934.2086836898364 421.24521954852037L934.2086836898364 415.9202605393277Q934.2086836898364 400.3823032253246 926.7264335948684 400.3823032253246L926.7264335948684 400.3823032253246Q923.0126160294827 400.3823032253246 919.9541780344592 405.59803230612357Q916.8957400394357 410.8137613869225 915.5303659345146 417.5040945010363L915.5303659345146 417.5040945010363L897.4528127853581 415.7291081646388ZM914.9296013283492 452.10267431973926L914.9296013283492 452.10267431973926Q914.9296013283492 458.38339520237673 922.4118514233174 458.38339520237673L922.4118514233174 458.38339520237673Q927.5183505757226 458.38339520237673 933.2256143342933 456.03495174191227L933.2256143342933 456.03495174191227L933.6079190836712 439.5139250723659Q924.3779901344038 440.3058420532202 919.6537957313766 444.1288895469995Q914.9296013283492 447.97924452287725 914.9296013283492 452.10267431973926ZM1015.6122878252378 380.14745899039264L1015.6122878252378 380.14745899039264Q1041.5543958187404 380.14745899039264 1041.5543958187404 423.4025106342959L1041.5543958187404 423.4025106342959Q1041.5543958187404 446.2042581864797 1039.0147999835867 471.7640614306044L1039.0147999835867 471.7640614306044L1015.9945925746157 469.6067703448289Q1018.1518836603911 447.187327542023 1018.1518836603911 424.27635006144544Q1018.1518836603911 401.36537258086787 1011.6800104030647 401.36537258086787L1011.6800104030647 401.36537258086787Q1008.539649961746 401.36537258086787 1003.6243031840296 417.2037121979537Q998.7089564063134 433.0420518150395 997.5074271939827 448.1703968975662L997.5074271939827 448.1703968975662Q997.9170394254592 456.2261041166013 999.0912611556913 477.280172814486L999.0912611556913 477.280172814486L976.0983612288186 475.09557424661205Q973.9137626609446 447.37847991671197 973.9137626609446 426.35171870092563Q973.9137626609446 405.2976500030409 975.1152918732753 388.58547095880556L975.1152918732753 388.58547095880556L989.6428723496367 390.16930492051415Q990.052484581113 391.75313888222274 992.5920804162665 402.94920654257646L992.5920804162665 402.94920654257646Q1004.0066079334077 380.14745899039264 1015.6122878252378 380.14745899039264ZM1179.7848702009614 395.8765686790847L1155.3992886870692 387.8208614600497Q1157.9661920043209 378.1813202793061 1157.9661920043209 371.6821395398813Q1157.9661920043209 365.2102662825548 1154.4162193315256 360.9776065572991Q1150.8662466587307 356.74494683204347 1145.2682128285537 356.74494683204347Q1139.6701789983767 356.74494683204347 1135.929053950893 362.26105821592506Q1132.1879289034086 367.74986211770823 1132.1879289034086 374.8224999812L1132.1879289034086 374.8224999812Q1132.1879289034086 388.58547095880556 1147.9170385921009 398.4161645142381L1147.9170385921009 398.4161645142381Q1163.646148280793 408.656470301147 1169.3534120393635 413.162204847387Q1175.060675797934 417.69524687572533 1177.4091192583987 421.4363719232094L1177.4091192583987 421.4363719232094Q1183.3075353916581 431.075913103953 1183.3075353916581 441.28891140876345L1183.3075353916581 441.28891140876345Q1183.3075353916581 458.984159808542 1171.4287806788439 469.4975404164352Q1159.522718483931 480.01092102432835 1144.5855257760932 480.01092102432835L1144.5855257760932 480.01092102432835Q1126.8902773763148 480.01092102432835 1114.9022927351066 465.0737283164906L1114.9022927351066 465.0737283164906Q1106.2458209099063 454.2599654055147 1098.9820306717256 438.14855096744475L1098.9820306717256 438.14855096744475L1118.0426531764251 428.89131453607905Q1122.5756952047636 440.6881468025981 1129.3479507651728 448.8530839500268Q1136.1202063255819 457.0180210974555 1143.793608795239 457.0180210974555L1143.793608795239 457.0180210974555Q1148.7089555729551 457.0180210974555 1152.6412329951281 453.8776606561368Q1156.5735104173011 450.7373002148181 1156.5735104173011 444.3473494037869Q1156.5735104173011 437.95739859275574 1151.658163639585 432.44128720887414Q1146.7428168618685 426.92517582499255 1138.4959572681446 421.24521954852037Q1130.2217901923223 415.5379557899498 1125.7160556460822 411.90606067085946Q1121.183013617744 408.2468580696707 1115.6942097159608 402.56690179319855L1115.6942097159608 402.56690179319855Q1105.2627515543631 391.5346790254353 1105.2627515543631 374.33096530342834Q1105.2627515543631 357.1272515814214 1117.2507361955709 345.439649243296Q1129.238720836779 333.75204690517063 1145.7597475063255 333.75204690517063Q1162.2807741758718 333.75204690517063 1173.5860717646192 346.53194852723294Q1184.8913693533666 359.31185014929525 1184.8913693533666 372.7744388238182Q1184.8913693533666 386.23702749834115 1179.7848702009614 395.8765686790847L1179.7848702009614 395.8765686790847ZM1245.4593646476706 391.5346790254353L1245.4593646476706 391.5346790254353L1245.4593646476706 410.2129967807572Q1236.010975841616 410.2129967807572 1230.9044766892107 410.43145663754456L1230.9044766892107 410.43145663754456Q1230.3037120830454 430.0928437484097 1230.3037120830454 476.4882558336317L1230.3037120830454 476.4882558336317L1207.1196597814837 474.3309647478562Q1207.1196597814837 439.92353730384224 1207.6931169055506 411.9879831171547L1207.6931169055506 411.9879831171547Q1204.7439088389208 411.9879831171547 1196.4970492451966 412.971052472698L1196.4970492451966 412.971052472698L1193.547841178567 396.85963803462795Q1198.2720355815943 395.8765686790847 1208.2938815117159 394.2927347173761L1208.2938815117159 394.2927347173761Q1208.6761862610938 379.73784675891625 1209.850407991326 351.82960005432716L1209.850407991326 351.82960005432716L1233.2529201496752 353.9868911401026Q1232.0786984194428 373.4571258762788 1231.4779338132776 391.75313888222274L1231.4779338132776 391.75313888222274Q1236.393280590994 391.5346790254353 1245.4593646476706 391.5346790254353ZM1259.4134879999651 474.3309647478562L1259.4134879999651 379.9563066157036L1281.832930802771 382.11359770147914L1281.832930802771 476.4882558336317L1259.4134879999651 474.3309647478562ZM1259.0038757684888 367.1764049936413L1260.9700144795752 345.3304193149023L1283.0071525330036 347.89732263215416L1281.0410138219167 369.9071532034837L1259.0038757684888 367.1764049936413ZM1339.0421057989688 476.8705605830096L1339.0421057989688 476.8705605830096L1313.8646073042223 474.5221171225452Q1299.3097193457625 415.9202605393277 1296.1693589044435 382.687054825546L1296.1693589044435 382.687054825546L1318.5888017072493 384.65319353663256Q1321.9203145232573 420.83560731704404 1327.818730656517 449.5357710024874L1327.818730656517 449.5357710024874Q1335.9017453576503 420.0436903361898 1344.9405219322284 375.42326458736534L1344.9405219322284 375.42326458736534L1366.1584355227037 377.1982509237629Q1354.9623678623502 428.89131453607905 1339.0421057989688 476.8705605830096ZM1400.3747105920288 459.5849244147074L1400.3747105920288 459.5849244147074Q1407.856960686997 459.5849244147074 1416.2949726554098 445.22118883093646L1416.2949726554098 445.22118883093646L1431.259472845346 454.06881303082577Q1427.5183477978621 460.5679937702506 1424.0776050534605 465.0737283164906Q1420.6368623090593 469.6067703448289 1413.7553768202565 473.7302001416909Q1406.8738913314537 477.8536299385529 1398.4085718809424 477.8536299385529L1398.4085718809424 477.8536299385529Q1386.0382824903563 477.8536299385529 1377.572963039845 467.34024933065973Q1369.1076435893333 456.82686872276656 1369.1076435893333 438.940467948299L1369.1076435893333 438.940467948299Q1369.1076435893333 418.48716385657957 1376.3987413096124 400.791915456801L1376.3987413096124 400.791915456801Q1380.3310187317857 391.5346790254353 1387.70403889836 385.7454928205695Q1395.0770590649345 379.9563066157036 1402.8323839808868 379.9563066157036Q1410.6150163789375 379.9563066157036 1415.3119032998666 382.4139800045618Q1420.036097702894 384.87165339341993 1422.9033833232284 387.90278390634495Q1425.7433614614642 390.96122190136845 1427.90065254724 396.85963803462795Q1430.0579436330154 402.7580541678875 1430.9590905422633 406.49917921537156Q1431.8329299694128 410.2129967807572 1432.4336945755786 417.31294212634737L1432.4336945755786 417.31294212634737Q1433.2256115564323 426.7340234503036 1433.2256115564323 434.40742591996064L1433.2256115564323 434.40742591996064Q1417.4965018677403 438.7220080915116 1392.5101557476828 442.2719807643067L1392.5101557476828 442.2719807643067Q1393.110920353848 450.13653560865276 1395.2682114396234 454.86073001168006Q1397.4255025253988 459.5849244147074 1400.3747105920288 459.5849244147074ZM1404.716600245678 399.2080814950924L1404.716600245678 399.2080814950924Q1400.3747105920288 399.2080814950924 1396.9339678476276 407.86455332029277Q1393.493225103226 416.52102514549307 1392.9197679791591 427.9082451805358L1392.9197679791591 427.9082451805358Q1403.3239186586584 425.75095409476035 1410.9973211283154 423.78481538367384L1410.9973211283154 423.78481538367384Q1410.9973211283154 399.2080814950924 1404.716600245678 399.2080814950924ZM1486.8848138798353 380.14745899039264L1486.8848138798353 380.14745899039264Q1512.8542293554365 380.14745899039264 1512.8542293554365 423.4025106342959L1512.8542293554365 423.4025106342959Q1512.8542293554365 446.2042581864797 1510.2873260381843 471.7640614306044L1510.2873260381843 471.7640614306044L1487.2944261113116 469.6067703448289Q1489.451717197087 447.187327542023 1489.451717197087 424.27635006144544Q1489.451717197087 401.36537258086787 1482.952536457662 401.36537258086787L1482.952536457662 401.36537258086787Q1479.8121760163435 401.36537258086787 1474.896829238627 417.2037121979537Q1469.9814824609111 433.0420518150395 1468.807260730679 448.1703968975662L1468.807260730679 448.1703968975662Q1469.189565480057 456.2261041166013 1470.363787210289 477.280172814486L1470.363787210289 477.280172814486L1447.3708872834159 475.09557424661205Q1445.2135961976405 447.37847991671197 1445.2135961976405 426.35171870092563Q1445.2135961976405 405.2976500030409 1446.3878179278727 388.58547095880556L1446.3878179278727 388.58547095880556L1460.9427058863325 390.16930492051415Q1461.3250106357104 391.75313888222274 1463.8919139529626 402.94920654257646L1463.8919139529626 402.94920654257646Q1475.279133988005 380.14745899039264 1486.8848138798353 380.14745899039264Z " fill="#ffffff" transform="matrix(0.5783769485156027,0,0,0.5783769485156027,0,65.75101546839159)"/></g></svg>